<?xml version="1.0" standalone="no"?>
<!DOCTYPE svg PUBLIC "-//W3C//DTD SVG 20010904//EN"
 "http://www.w3.org/TR/2001/REC-SVG-20010904/DTD/svg10.dtd">
<svg version="1.0" xmlns="http://www.w3.org/2000/svg"
 width="480.000000pt" height="480.000000pt" viewBox="0 0 480.000000 480.000000"
 preserveAspectRatio="xMidYMid meet">
<metadata>
Created by potrace 1.11, written by Peter Selinger 2001-2013
</metadata>
<g transform="translate(0.000000,480.000000) scale(0.100000,-0.100000)"
fill="#000000" stroke="none">
<path d="M1190 3710 c-18 -18 -20 -29 -15 -73 4 -33 -3 -122 -20 -242 -14
-104 -28 -235 -32 -290 -7 -118 2 -135 68 -135 55 0 75 13 89 57 22 69 80 169
131 226 62 70 140 110 269 139 88 20 131 21 604 25 421 4 507 2 500 -9 -4 -7
-372 -506 -818 -1108 -445 -602 -825 -1117 -843 -1144 -36 -53 -41 -86 -17
-110 24 -25 273 -23 302 1 40 35 1896 2568 1900 2594 2 15 -3 33 -13 42 -15
16 -87 17 -858 17 -754 0 -1031 6 -1179 26 -39 5 -50 2 -68 -16z"/>
<path d="M3452 3683 c-21 -19 -1871 -2523 -1891 -2561 -15 -29 -14 -58 5 -76
14 -14 101 -16 812 -16 711 0 969 -6 1153 -26 70 -7 83 4 99 84 6 31 40 156
75 277 96 327 111 417 79 449 -16 17 -99 22 -120 8 -6 -4 -24 -32 -39 -62 -70
-141 -226 -305 -339 -360 -157 -75 -320 -92 -826 -88 l-386 3 818 1110 c450
611 832 1130 848 1154 33 50 38 82 14 105 -24 25 -274 23 -302 -1z"/>
</g>
</svg>
